<svg xmlns="http://www.w3.org/2000/svg" width="960" height="960" viewBox="0 0 960 960">
  <!-- Background -->
  <rect width="960" height="960" fill="#ffffff" />

  <!-- Vertical Guides -->
  <g stroke="#cccccc" stroke-width="0.5">
    <line x1="32" y1="0" x2="32" y2="960" />
    <line x1="64" y1="0" x2="64" y2="960" />
    <line x1="96" y1="0" x2="96" y2="960" />
    <line x1="128" y1="0" x2="128" y2="960" />
    <line x1="160" y1="0" x2="160" y2="960" />
    <line x1="192" y1="0" x2="192" y2="960" />
    <line x1="224" y1="0" x2="224" y2="960" />
    <line x1="256" y1="0" x2="256" y2="960" />
    <line x1="288" y1="0" x2="288" y2="960" />
    <line x1="320" y1="0" x2="320" y2="960" />
    <line x1="352" y1="0" x2="352" y2="960" />
    <line x1="384" y1="0" x2="384" y2="960" />
    <line x1="416" y1="0" x2="416" y2="960" />
    <line x1="448" y1="0" x2="448" y2="960" />
    <line x1="480" y1="0" x2="480" y2="960" />
    <line x1="512" y1="0" x2="512" y2="960" />
    <line x1="544" y1="0" x2="544" y2="960" />
    <line x1="576" y1="0" x2="576" y2="960" />
    <line x1="608" y1="0" x2="608" y2="960" />
    <line x1="640" y1="0" x2="640" y2="960" />
    <line x1="672" y1="0" x2="672" y2="960" />
    <line x1="704" y1="0" x2="704" y2="960" />
    <line x1="736" y1="0" x2="736" y2="960" />
    <line x1="768" y1="0" x2="768" y2="960" />
    <line x1="800" y1="0" x2="800" y2="960" />
    <line x1="832" y1="0" x2="832" y2="960" />
    <line x1="864" y1="0" x2="864" y2="960" />
    <line x1="896" y1="0" x2="896" y2="960" />
    <line x1="928" y1="0" x2="928" y2="960" />
  </g>

  <!-- Horizontal Guides -->
  <g stroke="#cccccc" stroke-width="0.5">
    <line x1="0" y1="32" x2="960" y2="32" />
    <line x1="0" y1="64" x2="960" y2="64" />
    <line x1="0" y1="96" x2="960" y2="96" />
    <line x1="0" y1="128" x2="960" y2="128" />
    <line x1="0" y1="160" x2="960" y2="160" />
    <line x1="0" y1="192" x2="960" y2="192" />
    <line x1="0" y1="224" x2="960" y2="224" />
    <line x1="0" y1="256" x2="960" y2="256" />
    <line x1="0" y1="288" x2="960" y2="288" />
    <line x1="0" y1="320" x2="960" y2="320" />
    <line x1="0" y1="352" x2="960" y2="352" />
    <line x1="0" y1="384" x2="960" y2="384" />
    <line x1="0" y1="416" x2="960" y2="416" />
    <line x1="0" y1="448" x2="960" y2="448" />
    <line x1="0" y1="480" x2="960" y2="480" />
    <line x1="0" y1="512" x2="960" y2="512" />
    <line x1="0" y1="544" x2="960" y2="544" />
    <line x1="0" y1="576" x2="960" y2="576" />
    <line x1="0" y1="608" x2="960" y2="608" />
    <line x1="0" y1="640" x2="960" y2="640" />
    <line x1="0" y1="672" x2="960" y2="672" />
    <line x1="0" y1="704" x2="960" y2="704" />
    <line x1="0" y1="736" x2="960" y2="736" />
    <line x1="0" y1="768" x2="960" y2="768" />
    <line x1="0" y1="800" x2="960" y2="800" />
    <line x1="0" y1="832" x2="960" y2="832" />
    <line x1="0" y1="864" x2="960" y2="864" />
    <line x1="0" y1="896" x2="960" y2="896" />
    <line x1="0" y1="928" x2="960" y2="928" />
  </g>
</svg>