<svg xmlns="http://www.w3.org/2000/svg" width="320" height="320" viewBox="0 0 320 320">
  <!-- Background -->
  <rect width="320" height="320" fill="#ffffff" />

  <!-- Vertical Guides -->
  <g stroke="#cccccc" stroke-width="0.5">
    <line x1="32" y1="0" x2="32" y2="320" />
    <line x1="64" y1="0" x2="64" y2="320" />
    <line x1="96" y1="0" x2="96" y2="320" />
    <line x1="128" y1="0" x2="128" y2="320" />
    <line x1="160" y1="0" x2="160" y2="320" />
    <line x1="192" y1="0" x2="192" y2="320" />
    <line x1="224" y1="0" x2="224" y2="320" />
    <line x1="256" y1="0" x2="256" y2="320" />
    <line x1="288" y1="0" x2="288" y2="320" />
  </g>

  <!-- Horizontal Guides -->
  <g stroke="#cccccc" stroke-width="0.5">
    <line x1="0" y1="32" x2="320" y2="32" />
    <line x1="0" y1="64" x2="320" y2="64" />
    <line x1="0" y1="96" x2="320" y2="96" />
    <line x1="0" y1="128" x2="320" y2="128" />
    <line x1="0" y1="160" x2="320" y2="160" />
    <line x1="0" y1="192" x2="320" y2="192" />
    <line x1="0" y1="224" x2="320" y2="224" />
    <line x1="0" y1="256" x2="320" y2="256" />
    <line x1="0" y1="288" x2="320" y2="288" />
  </g>
</svg>

